<svg width="80" height="80" viewBox="0 0 80 80" fill="none" xmlns="http://www.w3.org/2000/svg">
<circle opacity="0.05" cx="40" cy="40" r="40" fill="#2B6FF4"/>
<circle cx="41.9783" cy="30.6295" r="14.5565" fill="#2B6FF4"/>
<path fill-rule="evenodd" clip-rule="evenodd" d="M64.8874 63.9193C57.9006 67.0789 50.1448 68.8378 41.9782 68.8378C33.8121 68.8378 26.0568 67.0791 19.0703 63.9199C24.5678 55.0611 32.7905 48.287 41.979 48.287C51.1674 48.287 59.39 55.0608 64.8874 63.9193Z" fill="#2B6FF4"/>
<circle cx="37.908" cy="26.5566" r="15.0583" fill="white" stroke="#050B20" stroke-width="1.00373" stroke-linejoin="round"/>
<mask id="path-5-outside-1_7017_262" maskUnits="userSpaceOnUse" x="13" y="42.2144" width="49" height="24" fill="black">
<rect fill="white" x="13" y="42.2144" width="49" height="24"/>
<path fill-rule="evenodd" clip-rule="evenodd" d="M60.8171 59.8466C53.8303 63.0063 46.0745 64.7652 37.9079 64.7652C29.7418 64.7652 21.9865 63.0065 15 59.8472C20.4974 50.9885 28.7202 44.2144 37.9087 44.2144C47.0971 44.2144 55.3197 50.9882 60.8171 59.8466Z"/>
</mask>
<path fill-rule="evenodd" clip-rule="evenodd" d="M60.8171 59.8466C53.8303 63.0063 46.0745 64.7652 37.9079 64.7652C29.7418 64.7652 21.9865 63.0065 15 59.8472C20.4974 50.9885 28.7202 44.2144 37.9087 44.2144C47.0971 44.2144 55.3197 50.9882 60.8171 59.8466Z" fill="white"/>
<path d="M60.8171 59.8466L61.2307 60.7612C61.494 60.6421 61.6933 60.4153 61.7774 60.1388C61.8615 59.8623 61.8223 59.5629 61.67 59.3174L60.8171 59.8466ZM15 59.8472L14.1471 59.318C13.9947 59.5636 13.9556 59.8629 14.0397 60.1394C14.1239 60.4159 14.3231 60.6427 14.5864 60.7618L15 59.8472ZM60.4035 58.9321C53.5441 62.0341 45.9291 63.7614 37.9079 63.7614V65.7689C46.2199 65.7689 54.1165 63.9784 61.2307 60.7612L60.4035 58.9321ZM37.9079 63.7614C29.8872 63.7614 22.2727 62.0343 15.4136 58.9327L14.5864 60.7618C21.7003 63.9787 29.5964 65.7689 37.9079 65.7689V63.7614ZM15.8529 60.3765C21.2706 51.6462 29.2263 45.2181 37.9087 45.2181V43.2106C28.214 43.2106 19.7243 50.3308 14.1471 59.318L15.8529 60.3765ZM37.9087 45.2181C46.5909 45.2181 54.5465 51.6459 59.9643 60.3759L61.67 59.3174C56.0928 50.3305 47.6033 43.2106 37.9087 43.2106V45.2181Z" fill="#050B20" mask="url(#path-5-outside-1_7017_262)"/>
<rect opacity="0.25" x="19" y="8" width="40" height="40" fill="#25CE6F"/>
<path d="M19 18V11C19 9.34315 20.3431 8 22 8H29" stroke="#2B6FF4" stroke-width="4" stroke-linecap="round"/>
<path d="M49 8L56 8C57.6569 8 59 9.34315 59 11L59 18" stroke="#2B6FF4" stroke-width="4" stroke-linecap="round"/>
<path d="M59 38L59 45C59 46.6569 57.6569 48 56 48L49 48" stroke="#2B6FF4" stroke-width="4" stroke-linecap="round"/>
<path d="M29 48L22 48C20.3431 48 19 46.6569 19 45L19 38" stroke="#2B6FF4" stroke-width="4" stroke-linecap="round"/>
</svg>
