<svg width="80" height="80" viewBox="0 0 80 80" fill="none" xmlns="http://www.w3.org/2000/svg">
<circle opacity="0.05" cx="40" cy="40" r="40" fill="#2B6FF4"/>
<path fill-rule="evenodd" clip-rule="evenodd" d="M23.4311 31.4287C23.4311 21.5665 31.426 13.5715 41.2882 13.5715C51.1505 13.5715 59.1454 21.5664 59.1454 31.4287V37.3085C60.7978 37.8002 62.0028 39.3309 62.0028 41.143V66.0001C62.0028 68.2093 60.2119 70.0001 58.0028 70.0001H24.5742C22.3651 70.0001 20.5742 68.2093 20.5742 66.0001V41.143C20.5742 39.3311 21.779 37.8005 23.4311 37.3087V31.4287ZM30.5738 37.143H52.0023V31.4287C52.0023 25.5114 47.2054 20.7144 41.2881 20.7144C35.3707 20.7144 30.5738 25.5114 30.5738 31.4287V37.143Z" fill="#2B6FF4"/>
<mask id="path-3-inside-1_7017_202" fill="white">
<path fill-rule="evenodd" clip-rule="evenodd" d="M37.7165 10C27.8543 10 19.8594 17.9949 19.8594 27.8571V38.5714H27.002V27.8572C27.002 21.9399 31.799 17.1429 37.7163 17.1429C43.6337 17.1429 48.4306 21.9399 48.4306 27.8572V38.5714H55.5737V27.8571C55.5737 17.9949 47.5787 10 37.7165 10Z"/>
</mask>
<path fill-rule="evenodd" clip-rule="evenodd" d="M37.7165 10C27.8543 10 19.8594 17.9949 19.8594 27.8571V38.5714H27.002V27.8572C27.002 21.9399 31.799 17.1429 37.7163 17.1429C43.6337 17.1429 48.4306 21.9399 48.4306 27.8572V38.5714H55.5737V27.8571C55.5737 17.9949 47.5787 10 37.7165 10Z" fill="white"/>
<path d="M19.8594 38.5714H18.8594V39.5714H19.8594V38.5714ZM27.002 38.5714V39.5714H28.002V38.5714H27.002ZM48.4306 38.5714H47.4306V39.5714H48.4306V38.5714ZM55.5737 38.5714V39.5714H56.5737V38.5714H55.5737ZM20.8594 27.8571C20.8594 18.5472 28.4066 11 37.7165 11V9C27.302 9 18.8594 17.4426 18.8594 27.8571H20.8594ZM20.8594 38.5714V27.8571H18.8594V38.5714H20.8594ZM27.002 37.5714H19.8594V39.5714H27.002V37.5714ZM28.002 38.5714V27.8572H26.002V38.5714H28.002ZM28.002 27.8572C28.002 22.4922 32.3513 18.1429 37.7163 18.1429V16.1429C31.2467 16.1429 26.002 21.3876 26.002 27.8572H28.002ZM37.7163 18.1429C43.0814 18.1429 47.4306 22.4921 47.4306 27.8572H49.4306C49.4306 21.3876 44.186 16.1429 37.7163 16.1429V18.1429ZM47.4306 27.8572V38.5714H49.4306V27.8572H47.4306ZM55.5737 37.5714H48.4306V39.5714H55.5737V37.5714ZM54.5737 27.8571V38.5714H56.5737V27.8571H54.5737ZM37.7165 11C47.0265 11 54.5737 18.5472 54.5737 27.8571H56.5737C56.5737 17.4426 48.131 9 37.7165 9V11Z" fill="#050B20" mask="url(#path-3-inside-1_7017_202)"/>
<rect x="17.5" y="34.5" width="40" height="31" rx="3.5" fill="white" stroke="#050B20"/>
<path d="M34.5113 45.1038C34.7187 43.3341 36.2182 42 38 42C39.7818 42 41.2813 43.3341 41.4887 45.1038L42.418 53.034C42.7279 55.6778 40.6619 58 38 58C35.3381 58 33.2721 55.6778 33.582 53.034L34.5113 45.1038Z" fill="#050B20"/>
</svg>
