<svg width="80" height="80" viewBox="0 0 80 80" fill="none" xmlns="http://www.w3.org/2000/svg">
<circle opacity="0.05" cx="40" cy="40" r="40" fill="#2B6FF4"/>
<path d="M18.957 19.1024C18.957 17.915 19.8062 16.8975 20.9744 16.6851L41.0388 13.0371C41.3295 12.9842 41.6272 12.9842 41.9178 13.0371L61.9823 16.6851C63.1505 16.8975 63.9997 17.915 63.9997 19.1024V48.2766C63.9997 54.2704 60.7257 59.7856 55.4637 62.6557L42.6548 69.6424C41.9215 70.0424 41.0352 70.0424 40.3019 69.6424L27.493 62.6557C22.231 59.7856 18.957 54.2704 18.957 48.2766V19.1024Z" fill="#2B6FF4"/>
<rect x="30.4219" y="40.7777" width="1.63791" height="10.6464" rx="0.818957" transform="rotate(-45 30.4219 40.7777)" fill="#050B20"/>
<rect x="50.6875" y="33.2487" width="1.63791" height="19.655" rx="0.818957" transform="rotate(45 50.6875 33.2487)" fill="#050B20"/>
<path d="M16.819 16.1452C16.819 15.3536 17.3851 14.6753 18.1639 14.5337L38.2283 10.8857C38.4221 10.8504 38.6206 10.8504 38.8143 10.8857L58.8788 14.5337C59.6576 14.6753 60.2237 15.3536 60.2237 16.1452V45.3194C60.2237 51.0136 57.1134 56.253 52.1145 58.9796L39.3056 65.9663C38.8168 66.233 38.2259 66.233 37.737 65.9663L24.9281 58.9796C19.9292 56.253 16.819 51.0136 16.819 45.3194V16.1452Z" fill="white" stroke="#050B20" stroke-width="1.63791"/>
<path d="M21.7305 20.4117V41.0907C21.7305 47.0932 25.0138 52.6148 30.2875 55.4813L38.5191 59.9557" stroke="#050B20" stroke-width="1.63791" stroke-linecap="round"/>
<path d="M55.3081 45.9165V22.4636C55.3081 21.2756 54.4582 20.2578 53.2893 20.046L38.5195 17.37" stroke="#050B20" stroke-width="1.63791" stroke-linecap="round"/>
<rect x="27.4648" y="37.8207" width="1.63791" height="10.6464" rx="0.818957" transform="rotate(-45 27.4648 37.8207)" fill="#050B20"/>
<rect x="47.7305" y="30.2916" width="1.63791" height="19.655" rx="0.818957" transform="rotate(45 47.7305 30.2916)" fill="#050B20"/>
</svg>
