<svg width="93" height="90" viewBox="0 0 93 90" fill="none" xmlns="http://www.w3.org/2000/svg">
<circle opacity="0.05" cx="40" cy="50" r="40" fill="#2B6FF4"/>
<mask id="path-2-inside-1_7017_316" fill="white">
<path fill-rule="evenodd" clip-rule="evenodd" d="M7.01996 57.841C5.66001 55.4607 5.66002 52.5393 7.01996 50.159C13.559 38.7139 25.8826 31 40.0078 31C54.1331 31 66.4566 38.7139 72.9957 50.159C74.3556 52.5393 74.3556 55.4607 72.9957 57.841C66.4566 69.286 54.1331 77 40.0078 77C25.8826 77 13.559 69.286 7.01996 57.841Z"/>
</mask>
<path fill-rule="evenodd" clip-rule="evenodd" d="M7.01996 57.841C5.66001 55.4607 5.66002 52.5393 7.01996 50.159C13.559 38.7139 25.8826 31 40.0078 31C54.1331 31 66.4566 38.7139 72.9957 50.159C74.3556 52.5393 74.3556 55.4607 72.9957 57.841C66.4566 69.286 54.1331 77 40.0078 77C25.8826 77 13.559 69.286 7.01996 57.841Z" fill="white"/>
<path d="M72.9957 50.159L72.1274 50.6551L72.9957 50.159ZM7.01996 57.841L6.15168 58.3371L7.01996 57.841ZM7.88824 50.6551C14.2565 39.5089 26.2559 32 40.0078 32V30C25.5092 30 12.8615 37.919 6.15168 49.6629L7.88824 50.6551ZM40.0078 32C53.7597 32 65.7591 39.5089 72.1274 50.6551L73.8639 49.6629C67.1542 37.919 54.5064 30 40.0078 30V32ZM72.1274 57.3449C65.7591 68.4911 53.7597 76 40.0078 76V78C54.5064 78 67.1542 70.081 73.8639 58.3371L72.1274 57.3449ZM40.0078 76C26.2559 76 14.2565 68.4911 7.88823 57.3449L6.15168 58.3371C12.8615 70.081 25.5092 78 40.0078 78V76ZM72.1274 50.6551C73.3117 52.7279 73.3117 55.2721 72.1274 57.3449L73.8639 58.3371C75.3995 55.6494 75.3995 52.3506 73.8639 49.6629L72.1274 50.6551ZM6.15168 49.6629C4.61611 52.3506 4.6161 55.6494 6.15168 58.3371L7.88823 57.3449C6.70392 55.2721 6.70392 52.7279 7.88824 50.6551L6.15168 49.6629Z" fill="#050B20" mask="url(#path-2-inside-1_7017_316)"/>
<circle cx="40.1289" cy="50.8493" r="12.4726" fill="#2B6FF4" stroke="#050B20"/>
<circle cx="46.4292" cy="44.5479" r="4.72603" fill="white"/>
<path d="M63.9829 5.36101L58.3809 22.4415C57.4613 25.2456 60.7536 27.5247 63.0976 25.7066L77.4644 14.5633C79.0723 13.3162 78.9986 10.8833 77.3183 9.7451L68.5534 3.8079C66.8942 2.68397 64.6058 3.46158 63.9829 5.36101Z" fill="#050B20"/>
<path d="M84.0434 24.394L68.6752 33.9085C66.1512 35.4712 67.1961 39.3587 70.1661 39.4551L88.3592 40.0458C90.3838 40.1115 91.8879 38.1961 91.3428 36.2462L88.5179 26.141C87.9796 24.2153 85.7427 23.342 84.0434 24.394Z" fill="#050B20"/>
<path d="M32.4215 9.66488L43.2707 24.0706C45.0516 26.4353 48.8196 25.097 48.6754 22.1511L47.7915 4.09173C47.6924 2.0671 45.6445 0.713779 43.7377 1.41286L33.7725 5.06647C31.8896 5.75678 31.2129 8.06013 32.4215 9.66488Z" fill="#050B20"/>
</svg>
